# xmcd
#
# Track frame offsets: 
#        150
#        15946
#        37412
#        61943
#        87782
#        101619
#        114951
#        131345
#        152964
#        168228
#        181583
#        201235
#        212723
#        232994
#        262464
#        283703
#
# Disc length: 4081 seconds
#
# Revision: 0
# Processed by: cddbd v1.5.2PL0 Copyright (c) Steve Scherf et al.
# Submitted via: ExactAudioCopy v1.3
#
DISCID=d90fef10
DTITLE=Alison Krauss - A Hundred Miles Or More: A Collection
DYEAR=2007
DGENRE=Country
TTITLE0=You're Just A Country Boy
TTITLE1=Simple Love
TTITLE2=Jacob's Dream
TTITLE3=Away Down The River
TTITLE4=Sawing On The Strings
TTITLE5=Down To The River To Pray
TTITLE6=Baby Mine
TTITLE7=Molly Ban (Bawn)
TTITLE8=How's The World Treating You (Duet With James Taylor)
TTITLE9=The Scarlet Tide
TTITLE10=Whiskey Lullaby (Duet With Brad Paisley)
TTITLE11=You Will Be My Ain True Love
TTITLE12=I Give You To His Heart
TTITLE13=Get Me Through December
TTITLE14=Missing You (Duet With John Waite)
TTITLE15=Lay Down Beside Me (Duet With John Waite)
EXTD=
EXTT0=
EXTT1=
EXTT2=
EXTT3=
EXTT4=
EXTT5=
EXTT6=
EXTT7=
EXTT8=
EXTT9=
EXTT10=
EXTT11=
EXTT12=
EXTT13=
EXTT14=
EXTT15=
PLAYORDER=
